<svg width="430" height="430" viewBox="0 0 430 430" fill="none" xmlns="http://www.w3.org/2000/svg">
<path d="M388.91 173.56L261.44 173.51C260.516 173.508 259.616 173.218 258.865 172.68C258.114 172.143 257.55 171.384 257.25 170.51L216.84 46.9202C216.63 46.2719 216.217 45.7081 215.663 45.3121C215.108 44.916 214.441 44.7085 213.76 44.7202C213.079 44.7097 212.412 44.919 211.859 45.3171C211.306 45.7152 210.896 46.2808 210.69 46.9302L170.87 169.73C170.573 170.606 170.009 171.366 169.257 171.904C168.506 172.442 167.604 172.731 166.68 172.73L40.9999 172.77C40.3143 172.772 39.6469 172.991 39.0931 173.395C38.5393 173.799 38.1275 174.368 37.9167 175.021C37.7059 175.673 37.7068 176.376 37.9193 177.028C38.1319 177.679 38.5451 178.247 39.0999 178.65L141.28 252.33C142.04 252.875 142.606 253.647 142.898 254.535C143.189 255.424 143.19 256.381 142.9 257.27L104.18 379C103.966 379.653 103.965 380.357 104.176 381.011C104.387 381.665 104.8 382.235 105.356 382.639C105.911 383.044 106.581 383.262 107.268 383.262C107.955 383.262 108.624 383.044 109.18 382.64L211 303.94C211.749 303.398 212.65 303.106 213.575 303.106C214.5 303.106 215.401 303.398 216.15 303.94L318.73 384.7C319.292 385.096 319.965 385.303 320.652 385.291C321.34 385.279 322.005 385.048 322.553 384.633C323.101 384.218 323.502 383.639 323.699 382.981C323.897 382.322 323.879 381.618 323.65 380.97L285.3 258.55C285.003 257.653 284.999 256.684 285.291 255.785C285.582 254.885 286.153 254.103 286.92 253.55L390.79 179.48C391.354 179.083 391.777 178.517 391.997 177.863C392.217 177.209 392.222 176.502 392.012 175.845C391.803 175.188 391.389 174.615 390.831 174.209C390.273 173.804 389.6 173.587 388.91 173.59V173.56Z" fill="#FFC738"/>
<g style="mix-blend-mode:multiply" opacity="0.5">
<path d="M39.1999 178.65L141.37 252.33C142.133 252.871 142.703 253.644 142.994 254.533C143.286 255.422 143.284 256.382 142.99 257.27L104.27 379C104.045 379.648 104.039 380.352 104.252 381.004C104.465 381.656 104.886 382.22 105.45 382.61L215 228.53L37.9999 175C37.7727 175.656 37.7671 176.368 37.9839 177.028C38.2007 177.687 38.6279 178.257 39.1999 178.65Z" fill="#FFC738"/>
</g>
<g style="mix-blend-mode:multiply" opacity="0.5">
<path d="M212.1 45.2202C211.471 45.6176 211 46.2225 210.77 46.9302L171 169.73C170.673 170.704 170.015 171.532 169.14 172.07L215 228.53L213.85 44.7202C213.232 44.7253 212.627 44.8981 212.1 45.2202Z" fill="#FFC738"/>
</g>
<g style="mix-blend-mode:multiply" opacity="0.5">
<path d="M216.28 303.91L318.86 384.68C319.416 385.079 320.087 385.288 320.771 385.275C321.456 385.263 322.118 385.03 322.66 384.61L215 228.53L213.76 303.09C214.665 303.09 215.548 303.377 216.28 303.91Z" fill="#FFC738"/>
</g>
<g style="mix-blend-mode:multiply" opacity="0.5">
<path d="M392.09 175.82L215 228.53L285.37 255.65C285.674 254.797 286.228 254.054 286.96 253.52L390.84 179.45C391.415 179.064 391.849 178.5 392.074 177.845C392.3 177.19 392.306 176.479 392.09 175.82Z" fill="#FFC738"/>
</g>
</svg>
